<svg xmlns="http://www.w3.org/2000/svg" viewBox="0 0 48 48">
    <path d="M30.567 14.419a2.97 2.97 0 012.098.867l11.81 11.804.034.036c4.676 4.775 4.647 12.537-.087 17.276l-.11.108a12.311 12.311 0 01-17.285-.108 2.967 2.967 0 010-4.177l.053-.051a2.97 2.97 0 014.09 0l.053.05a6.372 6.372 0 008.785.205l.215-.204a6.373 6.373 0 00.001-9.011l-11.755-11.75-.053-.054a2.967 2.967 0 01.053-4.124 2.97 2.97 0 012.098-.867zM5.672 26.167h.074c.76.02 1.486.33 2.024.868a2.967 2.967 0 010 4.178c-2.47 2.475-2.47 6.537 0 9.012a6.371 6.371 0 009.002 0l.128-.128.363-.362.123-.124.44-.44.348-.346.385-.385.64-.64.948-.947.764-.764 1.333-1.332.813-.813 1.333-1.332.764-.764.948-.947.64-.64 1.173-1.171.332-.332.209-.209.073-.073a2.97 2.97 0 014.196 0 2.967 2.967 0 010 4.178l-.022-.02.022.023-11.757 11.745-.023-.02.023.023-.094.088a12.308 12.308 0 01-17.3-.09l.001-.002c-4.763-4.768-4.763-12.596 0-17.365l-.001-.001a2.969 2.969 0 012.098-.868zM12.272 0c3.26 0 6.392 1.295 8.696 3.597l.053.055a2.967 2.967 0 01-.053 4.126l-.055.053a2.97 2.97 0 01-4.14-.053l.914-.913-.323.321.715-.713-1.31 1.305a6.37 6.37 0 00-8.784-.205l-.215.205c-2.469 2.475-2.469 6.534 0 9.01l11.756 11.745-.021.024.021-.021a2.965 2.965 0 01.053 4.123l-.053.054a2.965 2.965 0 01-4.196 0L3.574 20.967l.02-.023-.023.02a2.119 2.119 0 01-.076-.08c-4.686-4.775-4.66-12.545.079-17.287A12.311 12.311 0 0112.27 0zm32.152 3.592l-.001.001c4.77 4.762 4.77 12.595 0 17.357l-.02-.02.019.021a2.971 2.971 0 01-4.14.053l-.054-.053a2.968 2.968 0 01-.132-4.042l.132-.14c2.472-2.47 2.472-6.528 0-8.997l.001-.001c-2.425-2.414-6.38-2.463-8.866-.144a2.818 2.818 0 01-.14.15l-.023-.022-.003.002.02.02-11.752 11.748.002.001a2.97 2.97 0 01-4.196 0l-.054-.054a2.97 2.97 0 01-.077-3.987l.13-.14L26.874 3.752l.261-.27c4.784-4.648 12.553-4.611 17.29.11z" fill="#B84014" fill-rule="evenodd" />
</svg>