<svg viewBox="0 0 26 12" xmlns="http://www.w3.org/2000/svg" fill-rule="evenodd" clip-rule="evenodd" stroke-linejoin="round" stroke-miterlimit="2">
    <path d="M6 0a5.8 5.8 0 014.26 1.75A5.77 5.77 0 0112 6a5.711 5.711 0 01-1.71 4.22A5.923 5.923 0 016 12a5.813 5.813 0 01-4.22-1.77A5.773 5.773 0 010 6a5.872 5.872 0 011.77-4.25A5.754 5.754 0 016 0zm0 1.08a4.652 4.652 0 00-3.45 1.45A4.792 4.792 0 001.08 6a4.693 4.693 0 001.46 3.45A4.743 4.743 0 006 10.91a4.822 4.822 0 003.5-1.47A4.592 4.592 0 0010.92 6a4.681 4.681 0 00-1.44-3.47A4.693 4.693 0 006 1.08zM3.33 5.15c.074-.66.392-1.27.89-1.71A2.62 2.62 0 016 2.84a2.904 2.904 0 012.25.91c.572.642.874 1.48.84 2.34a3.21 3.21 0 01-.87 2.3 3 3 0 01-2.25.92 2.667 2.667 0 01-1.76-.61A2.599 2.599 0 013.29 7H4.8c.033.667.473 1 1.32 1a1.192 1.192 0 001-.55c.28-.43.42-.937.4-1.45a2.5 2.5 0 00-.35-1.45 1.171 1.171 0 00-1-.5 1.185 1.185 0 00-1.37 1.1h.44L4 6.34 2.86 5.15h.47zM19.998.001a5.804 5.804 0 014.26 1.74 5.804 5.804 0 011.74 4.26 5.664 5.664 0 01-1.71 4.21 5.933 5.933 0 01-4.29 1.79 5.813 5.813 0 01-4.22-1.77 5.773 5.773 0 01-1.78-4.23 5.883 5.883 0 011.77-4.26 5.754 5.754 0 014.23-1.74zm0 1.08a4.673 4.673 0 00-3.45 1.44 4.83 4.83 0 00-1.47 3.48 4.713 4.713 0 001.46 3.45 4.743 4.743 0 003.46 1.46 4.822 4.822 0 003.5-1.47 4.574 4.574 0 001.42-3.44 4.74 4.74 0 00-1.44-3.48 4.731 4.731 0 00-3.48-1.44zm1.62 3.43v2.49h-.69v2.88h-1.86v-2.88h-.69v-2.49-.01c0-.209.17-.38.38-.38H21.228a.38.38 0 01.27.11.364.364 0 01.12.28zm-2.46-1.51a.743.743 0 01.84-.88.743.743 0 01.84.88.743.743 0 01-.84.8.743.743 0 01-.84-.8z" fill-rule="nonzero" />
</svg>