<svg viewBox="0 0 12 12" xmlns="http://www.w3.org/2000/svg" fill-rule="evenodd" clip-rule="evenodd" stroke-linejoin="round" stroke-miterlimit="2">
    <path d="M5.947 5.004l-.803.418c-.228-.474-.61-.482-.665-.482-.535 0-.803.353-.803 1.06 0 .57.223 1.06.803 1.06.35 0 .597-.17.74-.513l.74.375c-.15.278-.622.943-1.576.943-.547 0-1.79-.25-1.79-1.865 0-1.42 1.041-1.864 1.758-1.864.743 0 1.275.29 1.596.868zm3.461 0l-.793.418c-.23-.479-.622-.482-.675-.482-.535 0-.803.353-.803 1.06 0 .57.223 1.06.803 1.06.35 0 .597-.17.74-.513l.75.375c-.052.09-.518.943-1.576.943-.549 0-1.789-.24-1.789-1.865 0-1.419 1.04-1.864 1.757-1.864.743 0 1.272.29 1.586.868zM5.99 0C2.534 0 0 2.784 0 6c0 3.35 2.748 6 5.99 6C9.132 12 12 9.56 12 6c0-3.336-2.58-6-6.01-6zm.021 10.907c-2.722 0-4.928-2.251-4.928-4.907 0-2.55 2.067-4.918 4.929-4.918A4.88 4.88 0 0110.918 6c0 2.944-2.412 4.907-4.908 4.907z" fill-rule="nonzero" />
</svg>